Season 8 Episode 5 of 10
Reality programme following a group of people in Essex, with each episode filmed just a few days before transmission

The Only Way Is Essex is a British BAFTA award-winning reality television show based in Essex, England.
It shows "real people in modified situations, saying unscripted lines but in a structured way."
The show is filmed just a few days in advance.




General
Complete name   : The.Only.Way.Is.Essex.S08E05.PDTV.x264-W33D.mp4
Format                                   : MPEG-4
Format profile                           : Base Media
Codec ID                                 : isom
File size                                : 177 MiB
Duration                                 : 33mn 0s
Overall bit rate mode                    : Variable
Overall bit rate                         : 751 Kbps
Writing application                      : Lavf52.64.2

Video
ID                                       : 1
Format                                   : AVC
Format/Info                              : Advanced Video Codec
Format profile                           : High@L3.1
Format settings, CABAC                   : Yes
Format settings, ReFrames                : 4 frames
Codec ID                                 : avc1
Codec ID/Info                            : Advanced Video Coding
Duration                                 : 33mn 0s
Bit rate                                 : 684 Kbps
Width                                    : 704 pixels
Height                                   : 400 pixels
Display aspect ratio                     : 16:9
Frame rate mode                          : Constant
Frame rate                               : 25.000 fps
Color space                              : YUV
Chroma subsampling                       : 4:2:0
Bit depth                                : 8 bits
Scan type                                : Progressive
Bits/(Pixel*Frame)                       : 0.097
Stream size                              : 161 MiB (91%)

Audio
ID                                       : 2
Format                                   : AAC
Format/Info                              : Advanced Audio Codec
Format profile                           : LC
Codec ID                                 : 40
Duration                                 : 33mn 0s
Duration_LastFrame                       : -21ms
Bit rate mode                            : Variable
Bit rate                                 : 61.4 Kbps
Channel(s)                               : 2 channels
Channel positions                        : Front: L R
Sampling rate                            : 48.0 KHz
Compression mode                         : Lossy
Delay relative to video                  : 200ms
Stream size                              : 14.5 MiB




